<svg version="1.2" xmlns="http://www.w3.org/2000/svg" viewBox="0 0 227 64" width="227" height="64"><style>.a{fill:#c4879e}.b{fill:#e2789f}</style><path class="a" d="m7.5 55.8h3.9v-1.8h-1.8v-11h1.8v-1.8h-3.9zm13.8-11.8h-3.4v9.1h3.4c2.9 0 4.8-1.9 4.8-4.6 0-2.7-1.9-4.5-4.8-4.5zm-1.2 7.2v-5.3h1.1c1.6 0 2.6 1 2.6 2.6 0 1.7-1 2.7-2.6 2.7zm11.3-3.7c0.7 0 1.3 0.5 1.3 1.3h-2.7c0.1-0.8 0.6-1.3 1.4-1.3zm3.4 3.2h-2.3c-0.2 0.4-0.6 0.7-1.2 0.7-0.7 0-1.3-0.4-1.4-1.4h5.1c0-0.2 0-0.4 0-0.6 0-2.3-1.5-3.7-3.6-3.7-2.2 0-3.7 1.5-3.7 3.8 0 2.3 1.6 3.7 3.7 3.7 1.8 0 3.1-1.1 3.4-2.5zm1.6-4.9l2.6 7.3h2.7l2.6-7.3h-2.4l-1.6 5.2-1.5-5.2zm12.9 1.7c0.7 0 1.3 0.5 1.3 1.3h-2.7c0.1-0.8 0.6-1.3 1.4-1.3zm3.4 3.2h-2.3c-0.2 0.4-0.6 0.7-1.2 0.7-0.7 0-1.3-0.4-1.4-1.4h5.1c0-0.2 0-0.4 0-0.6 0-2.3-1.5-3.7-3.6-3.7-2.2 0-3.7 1.5-3.7 3.8 0 2.3 1.6 3.7 3.7 3.7 1.8 0 3.1-1.1 3.4-2.5zm2.3 2.4h2.2v-9.6h-2.2zm11.8-3.6c0-2.3-1.7-3.8-3.8-3.8-2.1 0-3.8 1.5-3.8 3.8 0 2.3 1.7 3.7 3.8 3.7 2.1 0 3.8-1.4 3.8-3.7zm-5.3 0c0-1.3 0.7-1.9 1.5-1.9 0.8 0 1.5 0.6 1.5 1.9 0 1.2-0.7 1.8-1.5 1.8-0.8 0-1.5-0.6-1.5-1.8zm9.6-2.6v-1.1h-2.3v10.7h2.3v-4.4c0.4 0.6 1.1 1.1 2.2 1.1 1.8 0 3.2-1.5 3.2-3.8 0-2.2-1.4-3.7-3.2-3.7-1.1 0-1.8 0.5-2.2 1.2zm3.1 2.5c0 1.2-0.7 1.8-1.6 1.8-0.8 0-1.5-0.6-1.5-1.7 0-1.2 0.7-1.8 1.5-1.8 0.9 0 1.6 0.6 1.6 1.7zm7.6-1.9c0.7 0 1.3 0.5 1.3 1.3h-2.8c0.2-0.9 0.7-1.3 1.5-1.3zm3.4 3.2h-2.3c-0.2 0.4-0.6 0.7-1.2 0.7-0.7 0-1.3-0.5-1.4-1.4h5.1c0-0.2 0-0.5 0-0.7 0-2.2-1.5-3.6-3.6-3.6-2.2 0-3.7 1.5-3.7 3.8 0 2.3 1.5 3.7 3.7 3.7 1.8 0 3.1-1.1 3.4-2.5zm4.5-1c0-1.2 0.6-1.6 1.6-1.6h0.6v-2.3c-0.9 0-1.7 0.5-2.2 1.2v-1.2h-2.3v7.3h2.3zm3.6 5.3h1.5l1.6-4.2h-2.2zm8.8-2h2.2v-3.7h2.8v-1.7h-2.8v-1.9h3.8v-1.8h-6zm15.1-3.6c0-2.3-1.6-3.7-3.8-3.7-2.1 0-3.7 1.4-3.7 3.7 0 2.3 1.6 3.7 3.7 3.7 2.2 0 3.8-1.4 3.8-3.7zm-5.3 0c0-1.3 0.7-1.8 1.5-1.8 0.8 0 1.6 0.5 1.6 1.8 0 1.2-0.8 1.8-1.6 1.8-0.8 0-1.5-0.6-1.5-1.8zm14.5-3.6h-2.2v3.9c0 1-0.5 1.5-1.4 1.5-0.8 0-1.4-0.5-1.4-1.5v-3.9h-2.2v4.2c0 1.9 1.1 3.1 2.8 3.1 1 0 1.8-0.5 2.2-1.1v1h2.2zm7.5 7.3h2.2v-4.3c0-1.9-1.1-3.1-2.8-3.1-0.9 0-1.7 0.5-2.1 1.1v-1h-2.3v7.3h2.3v-4c0-1 0.5-1.5 1.3-1.5 0.9 0 1.4 0.5 1.4 1.5zm4.2-3.6c0 2.3 1.4 3.7 3.2 3.7 1.1 0 1.9-0.5 2.3-1.1v1h2.2v-9.6h-2.2v3.4c-0.5-0.7-1.3-1.1-2.3-1.1-1.8 0-3.2 1.4-3.2 3.7zm5.5 0c0 1.2-0.8 1.8-1.6 1.8-0.9 0-1.6-0.7-1.6-1.8 0-1.2 0.7-1.8 1.6-1.8 0.8 0 1.6 0.6 1.6 1.8zm7.9-2c0.7 0 1.3 0.5 1.3 1.3h-2.7c0.1-0.8 0.7-1.3 1.4-1.3zm3.5 3.2h-2.4c-0.2 0.4-0.5 0.7-1.2 0.7-0.7 0-1.3-0.4-1.3-1.4h5c0-0.2 0-0.4 0-0.6 0-2.2-1.5-3.6-3.6-3.6-2.1 0-3.7 1.4-3.7 3.7 0 2.3 1.6 3.7 3.7 3.7 1.8 0 3.1-1.1 3.5-2.5zm4.4-0.9c0-1.3 0.6-1.7 1.7-1.7h0.6v-2.3c-1 0-1.8 0.5-2.3 1.3v-1.2h-2.2v7.2h2.2zm3.7 5.4h1.4l1.7-4.3h-2.3zm8.9-1.9h2.2v-5.5l2 5.5h1.8l2.1-5.5v5.5h2.2v-9.1h-2.6l-2.6 6.3-2.5-6.3h-2.6zm19.9-3.7c0-2.3-1.7-3.7-3.8-3.7-2.1 0-3.8 1.4-3.8 3.7 0 2.3 1.6 3.8 3.8 3.8 2.1 0 3.8-1.5 3.8-3.8zm-5.3 0c0-1.2 0.7-1.8 1.5-1.8 0.8 0 1.5 0.6 1.5 1.8 0 1.3-0.7 1.8-1.5 1.8-0.8 0-1.5-0.5-1.5-1.8zm17.3 3.7h2.2v-4.3c0-1.9-1.1-3.1-2.9-3.1-1.1 0-2 0.6-2.5 1.4-0.4-0.9-1.3-1.4-2.4-1.4-1 0-1.7 0.4-2.1 1v-0.9h-2.3v7.3h2.3v-4c0-0.9 0.5-1.5 1.3-1.5 0.9 0 1.4 0.6 1.4 1.5v4h2.2v-4c0-0.9 0.6-1.5 1.4-1.5 0.9 0 1.4 0.6 1.4 1.5zm12.6 2.7h-3.9v-1.8h1.8v-11h-1.8v-1.8h3.9z"/><path class="b" d="m18.5 29.3h2.8l-5.8-16h
-3l-5.7 16h2.7l1.2-3.3h6.7zm-1.9-5.4h-5.2l2.6-7.4zm24.9 5.4h2.6v-7.5c0-3.5-2.2-5.4-5.2-5.4-1.8 0-3.6 1-4.4 2.5-0.9-1.6-2.6-2.5-4.6-2.5-1.5 0-2.9 0.6-3.7 1.7v-1.5h-2.6v12.7h2.6v-7.1c0-2.3 1.3-3.5 3.2-3.5 1.9 0 3.2 1.2 3.2 3.5v7.1h2.6v-7.1c0-2.3 1.2-3.5 3.2-3.5 1.9 0 3.1 1.2 3.1 3.5zm5-6.4c0 3.9 2.6 6.6 5.9 6.6 2.1 0 3.6-1 4.4-2.1v1.9h2.7v-12.6h-2.7v1.8c-0.8-1-2.2-2.1-4.4-2.1-3.3 0-5.9 2.6-5.9 6.5zm10.3 0.1c0 2.7-1.8 4.3-3.8 4.3-2 0-3.9-1.6-3.9-4.4 0-2.7 1.9-4.2 3.9-4.2 2 0 3.8 1.6 3.8 4.3zm15 6.3h2.6v-7.5c0-3.5-2.3-5.4-5.2-5.4-1.5 0-2.9 0.7-3.8 1.7v-1.4h-2.6v12.6h2.6v-7.1c0-2.3 1.3-3.5 3.2-3.5 1.9 0 3.2 1.2 3.2 3.5zm4.9-6.4c0 4 2.6 6.6 6 6.6 2.1 0 3.6-0.9 4.4-2.1v1.9h2.6v-17h-2.6v6.1c-1-1.2-2.7-1.9-4.4-1.9-3.4 0-6 2.5-6 6.4zm10.4 0.1c0 2.7-1.9 4.3-3.9 4.3-1.9 0-3.8-1.6-3.8-4.4 0-2.7 1.9-4.2 3.8-4.2 2 0 3.9 1.6 3.9 4.3zm5.1-0.1c0 4 2.6 6.6 5.9 6.6 2.1 0 3.6-1 4.4-2v1.8h2.7v-12.6h-2.7v1.8c-0.7-1-2.2-2-4.4-2-3.3 0-5.9 2.5-5.9 6.4zm10.3 0.1c0 2.7-1.8 4.3-3.8 4.3-2 0-3.8-1.6-3.8-4.4 0-2.7 1.8-4.2 3.8-4.2 2 0 3.8 1.6 3.8 4.3zm19.1-9.9c-4.5 0-8.1 3.4-8.1 8.2 0 4.8 3.6 8.2 8.1 8.2 4.3 0 7.5-3.2 7.9-6.9v-2h-8.8v2.1h6c-0.4 2.7-2.2 4.4-5.1 4.4-3.2 0-5.5-2.3-5.5-5.8 0-3.5 2.3-5.8 5.5-5.8 1.9 0 3.4 0.8 4.3 2.5h3.2c-1.3-3.2-4.1-4.9-7.5-4.9zm16.9 16.2h3l-4.1-6.4 4.1-6.2h-2.7l-2.6 4.3-2.8-4.3h-2.9l4.1 6.4-4.1 6.2h2.7l2.6-4.3zm3.9-6.4c0 4 2.6 6.6 5.9 6.6 2.2 0 3.7-1 4.5-2v1.8h2.6v-12.6h-2.6v1.8c-0.8-1-2.3-2-4.4-2-3.4 0-6 2.5-6 6.4zm10.4 0.1c0 2.7-1.9 4.3-3.9 4.3-1.9 0-3.8-1.6-3.8-4.4 0-2.7 1.9-4.2 3.8-4.2 2 0 3.9 1.6 3.9 4.3zm5.1-0.1c0 4 2.6 6.6 5.9 6.6 2.1 0 3.6-1 4.4-2.1v2.1c0 2.6-1.5 3.8-3.5 3.8-1.8 0-3.2-0.9-3.6-2.2h-2.6c0.3 2.8 2.8 4.5 6.2 4.5 3.9 0 6.2-2.6 6.2-6.1v-12.8h-2.7v1.8c-0.8-1.1-2.3-2-4.4-2-3.3 0-5.9 2.5-5.9 6.4zm10.3 0.1c0 2.7-1.8 4.3-3.8 4.3-2 0-3.9-1.6-3.9-4.4 0-2.7 1.9-4.2 3.9-4.2 2 0 3.8 1.6 3.8 4.3zm12.5 6.3h3l-4.1-6.4 4.1-6.2h-2.7l-2.6 4.3-2.7-4.3h-3l4.1 6.4-4.1 6.2h2.7l2.6-4.3zm3.9-6.4c0 4 2.7 6.6 5.9 6.6 2.2 0 3.7-1 4.5-2v1.8h2.6v-12.6h-2.6v1.8c-0.8-1-2.3-2-4.4-2-3.3 0-6 2.5-6 6.4zm10.4 0.1c0 2.7-1.9 4.3-3.9 4.3-1.9 0-3.8-1.6-3.8-4.4 0-2.7 1.9-4.2 3.8-4.2 2 0 3.9 1.6 3.9 4.3zm7.1 9.7h12.9v-2.4h-12.9z"/></svg>